<mxfile host="app.diagrams.net" modified="2020-10-14T14:14:01.719Z" agent="5.0 (Windows NT 10.0; WOW64) AppleWebKit/537.36 (KHTML, like Gecko) Chrome/85.0.4183.102 Safari/537.36" etag="J0X5IVbSOQe94d2Njhio" version="13.7.7" type="github">
  <diagram id="nwctiUjtWZLwNRs2aqm6" name="Page-1">
    <mxGraphModel dx="985" dy="610" grid="1" gridSize="10" guides="1" tooltips="1" connect="1" arrows="1" fold="1" page="1" pageScale="1" pageWidth="827" pageHeight="1169" math="0" shadow="0">
      <root>
        <mxCell id="0" />
        <mxCell id="1" parent="0" />
        <mxCell id="EJWmvi8uhuX4eLeOSZhE-33" style="edgeStyle=orthogonalEdgeStyle;rounded=0;orthogonalLoop=1;jettySize=auto;html=1;exitX=1;exitY=0.25;exitDx=0;exitDy=0;entryX=0;entryY=0.5;entryDx=0;entryDy=0;" edge="1" parent="1" source="EJWmvi8uhuX4eLeOSZhE-1" target="EJWmvi8uhuX4eLeOSZhE-8">
          <mxGeometry relative="1" as="geometry" />
        </mxCell>
        <mxCell id="EJWmvi8uhuX4eLeOSZhE-34" style="edgeStyle=orthogonalEdgeStyle;rounded=0;orthogonalLoop=1;jettySize=auto;html=1;exitX=1;exitY=0.75;exitDx=0;exitDy=0;" edge="1" parent="1" source="EJWmvi8uhuX4eLeOSZhE-1" target="EJWmvi8uhuX4eLeOSZhE-12">
          <mxGeometry relative="1" as="geometry" />
        </mxCell>
        <mxCell id="EJWmvi8uhuX4eLeOSZhE-1" value="FAKE" style="whiteSpace=wrap;html=1;aspect=fixed;rounded=1;fillColor=#f8cecc;strokeColor=#b85450;" vertex="1" parent="1">
          <mxGeometry x="40" y="200" width="80" height="80" as="geometry" />
        </mxCell>
        <mxCell id="EJWmvi8uhuX4eLeOSZhE-35" style="edgeStyle=orthogonalEdgeStyle;rounded=0;orthogonalLoop=1;jettySize=auto;html=1;exitX=1;exitY=0.25;exitDx=0;exitDy=0;entryX=0;entryY=0.5;entryDx=0;entryDy=0;" edge="1" parent="1" source="EJWmvi8uhuX4eLeOSZhE-2" target="EJWmvi8uhuX4eLeOSZhE-17">
          <mxGeometry relative="1" as="geometry" />
        </mxCell>
        <mxCell id="EJWmvi8uhuX4eLeOSZhE-36" style="edgeStyle=orthogonalEdgeStyle;rounded=0;orthogonalLoop=1;jettySize=auto;html=1;exitX=1;exitY=0.75;exitDx=0;exitDy=0;" edge="1" parent="1" source="EJWmvi8uhuX4eLeOSZhE-2" target="EJWmvi8uhuX4eLeOSZhE-19">
          <mxGeometry relative="1" as="geometry" />
        </mxCell>
        <mxCell id="EJWmvi8uhuX4eLeOSZhE-60" style="edgeStyle=orthogonalEdgeStyle;rounded=0;orthogonalLoop=1;jettySize=auto;html=1;exitX=0.25;exitY=1;exitDx=0;exitDy=0;entryX=1;entryY=0.5;entryDx=0;entryDy=0;" edge="1" parent="1" source="EJWmvi8uhuX4eLeOSZhE-2" target="EJWmvi8uhuX4eLeOSZhE-29">
          <mxGeometry relative="1" as="geometry">
            <Array as="points">
              <mxPoint x="60" y="580" />
              <mxPoint x="900" y="580" />
              <mxPoint x="900" y="380" />
            </Array>
          </mxGeometry>
        </mxCell>
        <mxCell id="EJWmvi8uhuX4eLeOSZhE-2" value="REAL" style="whiteSpace=wrap;html=1;aspect=fixed;rounded=1;fillColor=#fff2cc;strokeColor=#d6b656;" vertex="1" parent="1">
          <mxGeometry x="40" y="410" width="80" height="80" as="geometry" />
        </mxCell>
        <mxCell id="EJWmvi8uhuX4eLeOSZhE-24" style="edgeStyle=orthogonalEdgeStyle;rounded=0;orthogonalLoop=1;jettySize=auto;html=1;exitX=1;exitY=0.5;exitDx=0;exitDy=0;exitPerimeter=0;entryX=0.5;entryY=0;entryDx=0;entryDy=0;" edge="1" parent="1" source="EJWmvi8uhuX4eLeOSZhE-7" target="EJWmvi8uhuX4eLeOSZhE-23">
          <mxGeometry relative="1" as="geometry" />
        </mxCell>
        <mxCell id="EJWmvi8uhuX4eLeOSZhE-7" value="" style="html=1;whiteSpace=wrap;shape=isoCube2;backgroundOutline=1;isoAngle=15;gradientColor=#ea6b66;fillColor=#f8cecc;strokeColor=#b85450;" vertex="1" parent="1">
          <mxGeometry x="290" y="166.25" width="10" height="57.5" as="geometry" />
        </mxCell>
        <mxCell id="EJWmvi8uhuX4eLeOSZhE-37" style="edgeStyle=orthogonalEdgeStyle;rounded=0;orthogonalLoop=1;jettySize=auto;html=1;exitX=1;exitY=0.5;exitDx=0;exitDy=0;entryX=0;entryY=0.5;entryDx=0;entryDy=0;entryPerimeter=0;" edge="1" parent="1" source="EJWmvi8uhuX4eLeOSZhE-8" target="EJWmvi8uhuX4eLeOSZhE-7">
          <mxGeometry relative="1" as="geometry" />
        </mxCell>
        <mxCell id="EJWmvi8uhuX4eLeOSZhE-8" value="" style="rounded=0;whiteSpace=wrap;html=1;fillColor=#f8cecc;strokeColor=#b85450;gradientColor=#ea6b66;" vertex="1" parent="1">
          <mxGeometry x="160" y="177.5" width="80" height="35" as="geometry" />
        </mxCell>
        <mxCell id="EJWmvi8uhuX4eLeOSZhE-9" value="Eu" style="text;html=1;align=center;verticalAlign=middle;resizable=0;points=[];autosize=1;" vertex="1" parent="1">
          <mxGeometry x="185" y="185" width="30" height="20" as="geometry" />
        </mxCell>
        <mxCell id="EJWmvi8uhuX4eLeOSZhE-38" style="edgeStyle=orthogonalEdgeStyle;rounded=0;orthogonalLoop=1;jettySize=auto;html=1;exitX=1;exitY=0.5;exitDx=0;exitDy=0;entryX=0;entryY=0.5;entryDx=0;entryDy=0;entryPerimeter=0;" edge="1" parent="1" source="EJWmvi8uhuX4eLeOSZhE-12" target="EJWmvi8uhuX4eLeOSZhE-14">
          <mxGeometry relative="1" as="geometry" />
        </mxCell>
        <mxCell id="EJWmvi8uhuX4eLeOSZhE-12" value="" style="rounded=0;whiteSpace=wrap;html=1;fillColor=#dae8fc;strokeColor=#6c8ebf;gradientColor=#7ea6e0;" vertex="1" parent="1">
          <mxGeometry x="160" y="260" width="80" height="35" as="geometry" />
        </mxCell>
        <mxCell id="EJWmvi8uhuX4eLeOSZhE-13" value="Er" style="text;html=1;align=center;verticalAlign=middle;resizable=0;points=[];autosize=1;" vertex="1" parent="1">
          <mxGeometry x="185" y="267.5" width="30" height="20" as="geometry" />
        </mxCell>
        <mxCell id="EJWmvi8uhuX4eLeOSZhE-26" style="edgeStyle=orthogonalEdgeStyle;rounded=0;orthogonalLoop=1;jettySize=auto;html=1;exitX=0.5;exitY=1;exitDx=0;exitDy=0;exitPerimeter=0;entryX=0.75;entryY=1;entryDx=0;entryDy=0;" edge="1" parent="1" source="EJWmvi8uhuX4eLeOSZhE-14" target="EJWmvi8uhuX4eLeOSZhE-22">
          <mxGeometry relative="1" as="geometry" />
        </mxCell>
        <mxCell id="EJWmvi8uhuX4eLeOSZhE-14" value="" style="html=1;whiteSpace=wrap;shape=isoCube2;backgroundOutline=1;isoAngle=15;gradientColor=#7ea6e0;fillColor=#dae8fc;strokeColor=#6c8ebf;" vertex="1" parent="1">
          <mxGeometry x="290" y="248.75" width="10" height="57.5" as="geometry" />
        </mxCell>
        <mxCell id="EJWmvi8uhuX4eLeOSZhE-25" style="edgeStyle=orthogonalEdgeStyle;rounded=0;orthogonalLoop=1;jettySize=auto;html=1;exitX=0.9;exitY=0.278;exitDx=0;exitDy=0;exitPerimeter=0;entryX=0.5;entryY=1;entryDx=0;entryDy=0;" edge="1" parent="1" source="EJWmvi8uhuX4eLeOSZhE-16" target="EJWmvi8uhuX4eLeOSZhE-23">
          <mxGeometry relative="1" as="geometry">
            <mxPoint x="400" y="370" as="targetPoint" />
          </mxGeometry>
        </mxCell>
        <mxCell id="EJWmvi8uhuX4eLeOSZhE-27" style="edgeStyle=orthogonalEdgeStyle;rounded=0;orthogonalLoop=1;jettySize=auto;html=1;exitX=0.5;exitY=0;exitDx=0;exitDy=0;exitPerimeter=0;entryX=0.25;entryY=1;entryDx=0;entryDy=0;" edge="1" parent="1" source="EJWmvi8uhuX4eLeOSZhE-16" target="EJWmvi8uhuX4eLeOSZhE-22">
          <mxGeometry relative="1" as="geometry" />
        </mxCell>
        <mxCell id="EJWmvi8uhuX4eLeOSZhE-46" style="edgeStyle=orthogonalEdgeStyle;rounded=0;orthogonalLoop=1;jettySize=auto;html=1;exitX=1;exitY=0.5;exitDx=0;exitDy=0;exitPerimeter=0;entryX=0;entryY=0.25;entryDx=0;entryDy=0;" edge="1" parent="1" source="EJWmvi8uhuX4eLeOSZhE-16" target="EJWmvi8uhuX4eLeOSZhE-44">
          <mxGeometry relative="1" as="geometry" />
        </mxCell>
        <mxCell id="EJWmvi8uhuX4eLeOSZhE-16" value="" style="html=1;whiteSpace=wrap;shape=isoCube2;backgroundOutline=1;isoAngle=15;gradientColor=#97d077;fillColor=#d5e8d4;strokeColor=#82b366;" vertex="1" parent="1">
          <mxGeometry x="290" y="380" width="10" height="57.5" as="geometry" />
        </mxCell>
        <mxCell id="EJWmvi8uhuX4eLeOSZhE-39" style="edgeStyle=orthogonalEdgeStyle;rounded=0;orthogonalLoop=1;jettySize=auto;html=1;exitX=1;exitY=0.5;exitDx=0;exitDy=0;entryX=0;entryY=0.5;entryDx=0;entryDy=0;entryPerimeter=0;" edge="1" parent="1" source="EJWmvi8uhuX4eLeOSZhE-17" target="EJWmvi8uhuX4eLeOSZhE-16">
          <mxGeometry relative="1" as="geometry" />
        </mxCell>
        <mxCell id="EJWmvi8uhuX4eLeOSZhE-17" value="" style="rounded=0;whiteSpace=wrap;html=1;fillColor=#d5e8d4;strokeColor=#82b366;gradientColor=#97d077;" vertex="1" parent="1">
          <mxGeometry x="160" y="391.25" width="80" height="35" as="geometry" />
        </mxCell>
        <mxCell id="EJWmvi8uhuX4eLeOSZhE-18" value="Er" style="text;html=1;align=center;verticalAlign=middle;resizable=0;points=[];autosize=1;" vertex="1" parent="1">
          <mxGeometry x="185" y="398.75" width="30" height="20" as="geometry" />
        </mxCell>
        <mxCell id="EJWmvi8uhuX4eLeOSZhE-40" style="edgeStyle=orthogonalEdgeStyle;rounded=0;orthogonalLoop=1;jettySize=auto;html=1;exitX=1;exitY=0.5;exitDx=0;exitDy=0;entryX=0;entryY=0.5;entryDx=0;entryDy=0;entryPerimeter=0;" edge="1" parent="1" source="EJWmvi8uhuX4eLeOSZhE-19" target="EJWmvi8uhuX4eLeOSZhE-21">
          <mxGeometry relative="1" as="geometry" />
        </mxCell>
        <mxCell id="EJWmvi8uhuX4eLeOSZhE-19" value="" style="rounded=0;whiteSpace=wrap;html=1;fillColor=#f8cecc;strokeColor=#b85450;gradientColor=#ea6b66;" vertex="1" parent="1">
          <mxGeometry x="160" y="473.75" width="80" height="35" as="geometry" />
        </mxCell>
        <mxCell id="EJWmvi8uhuX4eLeOSZhE-20" value="Eu" style="text;html=1;align=center;verticalAlign=middle;resizable=0;points=[];autosize=1;" vertex="1" parent="1">
          <mxGeometry x="185" y="481.25" width="30" height="20" as="geometry" />
        </mxCell>
        <mxCell id="EJWmvi8uhuX4eLeOSZhE-47" style="edgeStyle=orthogonalEdgeStyle;rounded=0;orthogonalLoop=1;jettySize=auto;html=1;exitX=1;exitY=0.5;exitDx=0;exitDy=0;exitPerimeter=0;entryX=0;entryY=0.75;entryDx=0;entryDy=0;" edge="1" parent="1" source="EJWmvi8uhuX4eLeOSZhE-21" target="EJWmvi8uhuX4eLeOSZhE-44">
          <mxGeometry relative="1" as="geometry" />
        </mxCell>
        <mxCell id="EJWmvi8uhuX4eLeOSZhE-21" value="" style="html=1;whiteSpace=wrap;shape=isoCube2;backgroundOutline=1;isoAngle=15;gradientColor=#ea6b66;fillColor=#f8cecc;strokeColor=#b85450;" vertex="1" parent="1">
          <mxGeometry x="290" y="462.5" width="10" height="57.5" as="geometry" />
        </mxCell>
        <mxCell id="EJWmvi8uhuX4eLeOSZhE-22" value="" style="shape=trapezoid;perimeter=trapezoidPerimeter;whiteSpace=wrap;html=1;fixedSize=1;rotation=-90;fillColor=#d80073;strokeColor=#A50040;fontColor=#ffffff;" vertex="1" parent="1">
          <mxGeometry x="144.5" y="330" width="55" height="26" as="geometry" />
        </mxCell>
        <mxCell id="EJWmvi8uhuX4eLeOSZhE-41" style="edgeStyle=orthogonalEdgeStyle;rounded=0;orthogonalLoop=1;jettySize=auto;html=1;exitX=1;exitY=0.5;exitDx=0;exitDy=0;entryX=0;entryY=0.5;entryDx=0;entryDy=0;" edge="1" parent="1" source="EJWmvi8uhuX4eLeOSZhE-23" target="EJWmvi8uhuX4eLeOSZhE-28">
          <mxGeometry relative="1" as="geometry" />
        </mxCell>
        <mxCell id="EJWmvi8uhuX4eLeOSZhE-23" value="+" style="ellipse;whiteSpace=wrap;html=1;aspect=fixed;" vertex="1" parent="1">
          <mxGeometry x="540" y="343" width="24" height="24" as="geometry" />
        </mxCell>
        <mxCell id="EJWmvi8uhuX4eLeOSZhE-62" value="" style="edgeStyle=orthogonalEdgeStyle;rounded=0;orthogonalLoop=1;jettySize=auto;html=1;exitX=1;exitY=0.5;exitDx=0;exitDy=0;" edge="1" parent="1" source="EJWmvi8uhuX4eLeOSZhE-69" target="EJWmvi8uhuX4eLeOSZhE-61">
          <mxGeometry relative="1" as="geometry" />
        </mxCell>
        <mxCell id="EJWmvi8uhuX4eLeOSZhE-28" value="G" style="rounded=0;whiteSpace=wrap;html=1;fillColor=#fa6800;strokeColor=#C73500;fontColor=#ffffff;" vertex="1" parent="1">
          <mxGeometry x="590" y="325" width="100" height="60" as="geometry" />
        </mxCell>
        <mxCell id="EJWmvi8uhuX4eLeOSZhE-29" value="" style="shape=trapezoid;perimeter=trapezoidPerimeter;whiteSpace=wrap;html=1;fixedSize=1;rotation=90;fillColor=#0050ef;strokeColor=#001DBC;fontColor=#ffffff;" vertex="1" parent="1">
          <mxGeometry x="860" y="336" width="70" height="37" as="geometry" />
        </mxCell>
        <mxCell id="EJWmvi8uhuX4eLeOSZhE-55" value="" style="edgeStyle=orthogonalEdgeStyle;rounded=0;orthogonalLoop=1;jettySize=auto;html=1;" edge="1" parent="1" source="EJWmvi8uhuX4eLeOSZhE-30" target="EJWmvi8uhuX4eLeOSZhE-54">
          <mxGeometry relative="1" as="geometry" />
        </mxCell>
        <mxCell id="EJWmvi8uhuX4eLeOSZhE-30" value="D" style="text;html=1;align=center;verticalAlign=middle;resizable=0;points=[];autosize=1;" vertex="1" parent="1">
          <mxGeometry x="880" y="345" width="20" height="20" as="geometry" />
        </mxCell>
        <mxCell id="EJWmvi8uhuX4eLeOSZhE-31" value="" style="endArrow=none;dashed=1;html=1;dashPattern=1 3;strokeWidth=2;entryX=0.425;entryY=-0.012;entryDx=0;entryDy=0;exitX=0.75;exitY=0;exitDx=0;exitDy=0;entryPerimeter=0;" edge="1" parent="1" source="EJWmvi8uhuX4eLeOSZhE-1" target="EJWmvi8uhuX4eLeOSZhE-56">
          <mxGeometry width="50" height="50" relative="1" as="geometry">
            <mxPoint x="90" y="110" as="sourcePoint" />
            <mxPoint x="140" y="60" as="targetPoint" />
            <Array as="points">
              <mxPoint x="100" y="120" />
              <mxPoint x="484" y="120" />
            </Array>
          </mxGeometry>
        </mxCell>
        <mxCell id="EJWmvi8uhuX4eLeOSZhE-64" value="L1" style="edgeLabel;html=1;align=center;verticalAlign=middle;resizable=0;points=[];" vertex="1" connectable="0" parent="EJWmvi8uhuX4eLeOSZhE-31">
          <mxGeometry x="-0.1296" y="-1" relative="1" as="geometry">
            <mxPoint as="offset" />
          </mxGeometry>
        </mxCell>
        <mxCell id="EJWmvi8uhuX4eLeOSZhE-32" value="" style="endArrow=none;dashed=1;html=1;dashPattern=1 3;strokeWidth=2;entryX=0.5;entryY=1;entryDx=0;entryDy=0;exitX=0.75;exitY=1;exitDx=0;exitDy=0;" edge="1" parent="1" source="EJWmvi8uhuX4eLeOSZhE-2" target="EJWmvi8uhuX4eLeOSZhE-58">
          <mxGeometry width="50" height="50" relative="1" as="geometry">
            <mxPoint x="110" y="210" as="sourcePoint" />
            <mxPoint x="305" y="176.25" as="targetPoint" />
            <Array as="points">
              <mxPoint x="100" y="560" />
              <mxPoint x="490" y="560" />
            </Array>
          </mxGeometry>
        </mxCell>
        <mxCell id="EJWmvi8uhuX4eLeOSZhE-66" value="L1" style="edgeLabel;html=1;align=center;verticalAlign=middle;resizable=0;points=[];" vertex="1" connectable="0" parent="EJWmvi8uhuX4eLeOSZhE-32">
          <mxGeometry x="-0.0802" y="3" relative="1" as="geometry">
            <mxPoint as="offset" />
          </mxGeometry>
        </mxCell>
        <mxCell id="EJWmvi8uhuX4eLeOSZhE-53" value="" style="edgeStyle=orthogonalEdgeStyle;rounded=0;orthogonalLoop=1;jettySize=auto;html=1;" edge="1" parent="1" source="EJWmvi8uhuX4eLeOSZhE-43" target="EJWmvi8uhuX4eLeOSZhE-52">
          <mxGeometry relative="1" as="geometry" />
        </mxCell>
        <mxCell id="EJWmvi8uhuX4eLeOSZhE-43" value="Dc" style="text;html=1;align=center;verticalAlign=middle;resizable=0;points=[];autosize=1;" vertex="1" parent="1">
          <mxGeometry x="157" y="336" width="30" height="20" as="geometry" />
        </mxCell>
        <mxCell id="EJWmvi8uhuX4eLeOSZhE-59" value="" style="edgeStyle=orthogonalEdgeStyle;rounded=0;orthogonalLoop=1;jettySize=auto;html=1;" edge="1" parent="1" source="EJWmvi8uhuX4eLeOSZhE-44" target="EJWmvi8uhuX4eLeOSZhE-58">
          <mxGeometry relative="1" as="geometry" />
        </mxCell>
        <mxCell id="EJWmvi8uhuX4eLeOSZhE-44" value="G" style="rounded=0;whiteSpace=wrap;html=1;fillColor=#60a917;strokeColor=#2D7600;fontColor=#ffffff;" vertex="1" parent="1">
          <mxGeometry x="340" y="426.25" width="80" height="60" as="geometry" />
        </mxCell>
        <mxCell id="EJWmvi8uhuX4eLeOSZhE-48" style="edgeStyle=orthogonalEdgeStyle;rounded=0;orthogonalLoop=1;jettySize=auto;html=1;exitX=1;exitY=0.5;exitDx=0;exitDy=0;exitPerimeter=0;entryX=0;entryY=0.25;entryDx=0;entryDy=0;" edge="1" parent="1" target="EJWmvi8uhuX4eLeOSZhE-50">
          <mxGeometry relative="1" as="geometry">
            <mxPoint x="300" y="212.45" as="sourcePoint" />
          </mxGeometry>
        </mxCell>
        <mxCell id="EJWmvi8uhuX4eLeOSZhE-49" style="edgeStyle=orthogonalEdgeStyle;rounded=0;orthogonalLoop=1;jettySize=auto;html=1;exitX=1;exitY=0.5;exitDx=0;exitDy=0;exitPerimeter=0;entryX=0;entryY=0.75;entryDx=0;entryDy=0;" edge="1" parent="1" target="EJWmvi8uhuX4eLeOSZhE-50">
          <mxGeometry relative="1" as="geometry">
            <mxPoint x="300" y="294.95" as="sourcePoint" />
          </mxGeometry>
        </mxCell>
        <mxCell id="EJWmvi8uhuX4eLeOSZhE-57" value="" style="edgeStyle=orthogonalEdgeStyle;rounded=0;orthogonalLoop=1;jettySize=auto;html=1;" edge="1" parent="1" source="EJWmvi8uhuX4eLeOSZhE-50" target="EJWmvi8uhuX4eLeOSZhE-56">
          <mxGeometry relative="1" as="geometry" />
        </mxCell>
        <mxCell id="EJWmvi8uhuX4eLeOSZhE-50" value="G" style="rounded=0;whiteSpace=wrap;html=1;fillColor=#60a917;strokeColor=#2D7600;fontColor=#ffffff;" vertex="1" parent="1">
          <mxGeometry x="340" y="229.95" width="80" height="60" as="geometry" />
        </mxCell>
        <mxCell id="EJWmvi8uhuX4eLeOSZhE-51" value="" style="endArrow=none;dashed=1;html=1;dashPattern=1 3;strokeWidth=2;entryX=0.5;entryY=0;entryDx=0;entryDy=0;exitX=0.25;exitY=0;exitDx=0;exitDy=0;" edge="1" parent="1" source="EJWmvi8uhuX4eLeOSZhE-1" target="EJWmvi8uhuX4eLeOSZhE-61">
          <mxGeometry width="50" height="50" relative="1" as="geometry">
            <mxPoint x="110" y="210" as="sourcePoint" />
            <mxPoint x="400" y="239.95000000000005" as="targetPoint" />
            <Array as="points">
              <mxPoint x="60" y="100" />
              <mxPoint x="800" y="100" />
            </Array>
          </mxGeometry>
        </mxCell>
        <mxCell id="EJWmvi8uhuX4eLeOSZhE-65" value="L1" style="edgeLabel;html=1;align=center;verticalAlign=middle;resizable=0;points=[];" vertex="1" connectable="0" parent="EJWmvi8uhuX4eLeOSZhE-51">
          <mxGeometry x="-0.354" y="1" relative="1" as="geometry">
            <mxPoint as="offset" />
          </mxGeometry>
        </mxCell>
        <mxCell id="EJWmvi8uhuX4eLeOSZhE-52" value="classify&lt;br&gt;loss" style="ellipse;whiteSpace=wrap;html=1;" vertex="1" parent="1">
          <mxGeometry x="60" y="325" width="70" height="42" as="geometry" />
        </mxCell>
        <mxCell id="EJWmvi8uhuX4eLeOSZhE-54" value="adv&lt;br&gt;loss" style="ellipse;whiteSpace=wrap;html=1;" vertex="1" parent="1">
          <mxGeometry x="940" y="334" width="70" height="42" as="geometry" />
        </mxCell>
        <mxCell id="EJWmvi8uhuX4eLeOSZhE-56" value="REC&lt;br&gt;FAKE" style="whiteSpace=wrap;html=1;aspect=fixed;rounded=1;fillColor=#e1d5e7;strokeColor=#9673a6;" vertex="1" parent="1">
          <mxGeometry x="450" y="219.95" width="80" height="80" as="geometry" />
        </mxCell>
        <mxCell id="EJWmvi8uhuX4eLeOSZhE-58" value="REC&lt;br&gt;FAKE" style="whiteSpace=wrap;html=1;aspect=fixed;rounded=1;fillColor=#ffe6cc;strokeColor=#d79b00;" vertex="1" parent="1">
          <mxGeometry x="450" y="416" width="80" height="80" as="geometry" />
        </mxCell>
        <mxCell id="EJWmvi8uhuX4eLeOSZhE-63" value="" style="edgeStyle=orthogonalEdgeStyle;rounded=0;orthogonalLoop=1;jettySize=auto;html=1;" edge="1" parent="1" source="EJWmvi8uhuX4eLeOSZhE-61" target="EJWmvi8uhuX4eLeOSZhE-30">
          <mxGeometry relative="1" as="geometry" />
        </mxCell>
        <mxCell id="EJWmvi8uhuX4eLeOSZhE-61" value="ADV&lt;br&gt;FAKE" style="whiteSpace=wrap;html=1;aspect=fixed;rounded=1;fillColor=#e1d5e7;strokeColor=#9673a6;" vertex="1" parent="1">
          <mxGeometry x="760" y="315" width="80" height="80" as="geometry" />
        </mxCell>
        <mxCell id="EJWmvi8uhuX4eLeOSZhE-69" value="fliter" style="rounded=0;whiteSpace=wrap;html=1;fillColor=#fa6800;strokeColor=#C73500;fontColor=#ffffff;" vertex="1" parent="1">
          <mxGeometry x="690" y="325" width="40" height="60" as="geometry" />
        </mxCell>
      </root>
    </mxGraphModel>
  </diagram>
</mxfile>
